<svg xmlns="http://www.w3.org/2000/svg" viewBox="0 0 395.94 345.67"><defs><style>.call{fill:#fff;}</style></defs><g id="Layer_2" data-name="Layer 2"><g id="call"><path class="call" d="M23.7,280.79C-3.62,254.89-1.46,209.68,7.77,173.18c9.54-37.71,26.37-73.9,51.43-103.65s58.61-52.82,96.22-62.77c28-7.42,58.36-7.37,85.57,2.61s51,30.32,62.78,56.8c2.34,5.25,4.24,11.1,2.87,16.68-1.64,6.72-7.52,11.41-13,15.58l-61.84,46.63c-3.52,2.65-7.12,5.35-11.31,6.74-12.08,4-25.47-4.44-31.35-15.73s-6.08-24.59-6-37.32c0-4.35,0-8.92-2.15-12.71-5-8.76-17.65-8.41-27.36-5.77C95.93,95.93,53.39,155.08,56.86,214.69c.61,10.39,3.47,22.18,12.73,26.92,10.71,5.48,23.18-1.39,34.76-4.61,21.68-6,46.65,2.39,60.23,20.34,2.1,2.77,4,5.94,4,9.41,0,4-2.53,7.45-5,10.56a268,268,0,0,1-69.72,61.84c-4.13,2.53-8.58,5-13.43,5.08s-9.44-2.4-13.55-5.08a105,105,0,0,1-43-57.88Z"/><path d="M24.76,279.73C11,266.59,4.85,248.1,3.41,229.49c-1.53-19.55,1.45-39.26,6.38-58.15a276,276,0,0,1,24.88-63.23A223.78,223.78,0,0,1,74.78,55a194.16,194.16,0,0,1,52.54-36.47A161.45,161.45,0,0,1,193.61,3c22.81-.25,45.72,5,65.48,16.56,17.43,10.22,32.24,25.08,41.4,43.18,2.6,5.15,5.3,10.88,5.1,16.79-.19,5.59-3.69,10-7.71,13.55-4.46,3.94-9.43,7.35-14.18,10.93l-15.86,12-31.73,23.92c-4.7,3.54-9.44,7.85-15,10.05a20.08,20.08,0,0,1-13.84.2c-10-3.32-16.8-12.25-19.8-22a70.39,70.39,0,0,1-2.71-16.94c-.3-5.76.08-11.55-.32-17.29-.33-4.84-1.82-9.56-5.71-12.69a20.39,20.39,0,0,0-11.49-4c-9-.63-18.19,2.47-26.49,5.74a132.58,132.58,0,0,0-46.5,31.39,142.41,142.41,0,0,0-30.34,47.46c-6.74,17.44-10.15,36.8-8.37,55.48.83,8.79,3.31,18.53,10.76,24.07,9.06,6.73,20.56,3,30.17-.23A80.22,80.22,0,0,1,111.77,237a55.17,55.17,0,0,1,14.58.07,58.11,58.11,0,0,1,26.48,10.76,51.68,51.68,0,0,1,10.46,10.27,17.25,17.25,0,0,1,3.65,7.16c.52,3-.8,5.84-2.44,8.29A132.6,132.6,0,0,1,153.55,287Q148,293.29,142,299.25A265.7,265.7,0,0,1,116.09,322q-6.69,5.13-13.69,9.85c-4.72,3.17-9.53,6.54-14.68,9a17,17,0,0,1-8.46,1.84,20.9,20.9,0,0,1-8.6-3,84.58,84.58,0,0,1-13.11-9.38,104.28,104.28,0,0,1-27.5-36.67q-1.55-3.45-2.82-7c-.75-2.07-1.27-4.23-2.08-6.26-.71-1.77-3.62-1-2.89.79.84,2.11,1.39,4.37,2.16,6.51q1.33,3.68,2.93,7.23a104.94,104.94,0,0,0,7.55,14,106.74,106.74,0,0,0,20.73,23.73,92.13,92.13,0,0,0,13,9.39c5,2.89,10.46,4.61,16.17,3.1,5.54-1.47,10.48-5,15.22-8.08q7.33-4.74,14.33-10a269,269,0,0,0,49.92-48.25c3.35-4.21,6.72-8.93,5.51-14.62-1-4.92-4.89-9.25-8.3-12.77a59.41,59.41,0,0,0-24.75-15.08,58.73,58.73,0,0,0-28.95-1.71c-5.48,1.09-10.68,3.17-16,4.88s-11.07,3.36-16.67,2.37C64.6,240,60.33,229.68,58.91,220.2s-.93-19.51.41-29a133.77,133.77,0,0,1,20.44-53.87A136.48,136.48,0,0,1,120.7,96.53a122.11,122.11,0,0,1,26.08-12.61c8.24-2.82,18.3-5.83,26.81-2.33,4.74,2,7.23,6.16,7.77,11.16.64,5.79.11,11.72.38,17.54.51,11,2.43,22.73,9.4,31.66,5.79,7.42,15.16,13.17,24.86,12.28,5.45-.5,10.1-3.15,14.44-6.33C235.75,144,241,140,246.23,136l32.26-24.33,16.08-12.12c4.07-3.07,8.19-6.3,11-10.62,6.51-10,.85-21.84-4.31-31.1a105.33,105.33,0,0,0-18.66-24.17,119.08,119.08,0,0,0-55.56-30C203.32-2,178.24-.87,154.75,5.38A182.16,182.16,0,0,0,96,33.45,211.13,211.13,0,0,0,49.32,79.64a253.35,253.35,0,0,0-32.75,60.61C9,160.18,3.21,181.11,1,202.37c-2,19.16-1.21,39.39,6.46,57.32a67.2,67.2,0,0,0,15.23,22.17C24,283.19,26.16,281.07,24.76,279.73Z"/><path class="call" d="M334.52,137.05c2,29.66-13.27,56.53-29.83,79.9-2.3,3.26-4.65,6.49-7,9.7-1.28,1.74-4.53,7.27-7.32,5.43-1.62-1.07-3.13,1.53-1.52,2.59,2.73,1.79,5.79.11,7.84-1.92a34.52,34.52,0,0,0,3.32-4.21c1.14-1.55,2.27-3.09,3.4-4.65,4.55-6.26,9-12.61,13.14-19.16,8.2-13,15.14-27,18.69-42a87.6,87.6,0,0,0,2.3-25.66c-.13-1.91-3.13-1.93-3,0Z"/><path class="call" d="M380.9,113.34a111.27,111.27,0,0,1,8,44.54c-.29,15.45-3.25,30.74-7.71,45.49a279.36,279.36,0,0,1-17.69,43.74c-6.38,12.81-13.44,25.38-22.08,36.82-8.42,11.14-18.53,21.2-30.6,28.34-1.52.91-3.08,1.76-4.65,2.57s-.2,3.47,1.51,2.59c12.77-6.56,23.63-16.25,32.67-27.32,9.17-11.24,16.63-23.75,23.27-36.62a300.67,300.67,0,0,0,18.68-43.66,183.39,183.39,0,0,0,9.37-46.21c.93-15.4-.72-31.05-5.83-45.66q-1-2.73-2.07-5.42c-.72-1.76-3.63-1-2.89.8Z"/></g></g></svg>