<svg xmlns="http://www.w3.org/2000/svg" viewBox="0 0 521.28 512.08"><defs><style>.cls-1{fill:#dc0024;}</style></defs><g id="Layer_2" data-name="Layer 2"><g id="Layer_1-2" data-name="Layer 1"><path class="cls-1" d="M368.6,98.93q-24.08,29-48.67,57.5T270.24,213q-25.1,28.1-50.69,55.73t-51.67,54.81q-26.08,27.18-52.64,53.89L108.69,384a13.92,13.92,0,0,0-4,9.55,13.7,13.7,0,0,0,4,9.54,13.55,13.55,0,0,0,9.54,4,14.05,14.05,0,0,0,9.55-4q26.61-26.64,52.76-53.77t51.79-54.7q25.65-27.57,50.81-55.61T333,182.54q24.66-28.47,48.8-57.39,3-3.56,5.94-7.12c2.35-2.83,4-5.76,4-9.55a13.73,13.73,0,0,0-4-9.55,13.58,13.58,0,0,0-9.54-4c-3.39.15-7.29,1.24-9.55,4Z"/><path class="cls-1" d="M234.77,33c7.4-1.21,14.69-2.94,22.09-4.13l2.27-.35,1.13-.17c1.51-.22-1.89.26-1.7.23,1.75-.29,3.53-.43,5.29-.61q4.89-.49,9.81-.73a192.17,192.17,0,0,1,19.5.07c3.23.17,6.46.41,9.68.74,1.48.14,3,.31,4.44.49a14.84,14.84,0,0,1,2.21.28c.21.06-3.24-.46-1.75-.23l1.84.26a237.76,237.76,0,0,1,37,8.69c6,1.91,12,4.06,17.83,6.4a36.73,36.73,0,0,1,4.35,1.78c.18.1-2.9-1.24-1.56-.66l1,.43,2.31,1q4.25,1.88,8.44,3.9A293.69,293.69,0,0,1,410.43,68q7.24,4.65,14.2,9.72l3.11,2.3,1.79,1.35.75.58c1.29,1-2.47-1.94-1.23-1,2.12,1.68,4.24,3.35,6.32,5.07a230.32,230.32,0,0,1,21.81,20.44c2.93,3.16,5.77,6.41,8.46,9.79l1,1.32c.55.68-2.3-3-1-1.24.59.8,1.19,1.6,1.78,2.41q1.67,2.31,3.23,4.71a82.55,82.55,0,0,1,5.09,9c.38.79.72,1.59,1.09,2.38.63,1.36-.49-1.19-.49-1.17.15.42.35.82.51,1.24q.58,1.44,1.14,2.91c1.37,3.61,2.59,7.28,3.69,11A219.81,219.81,0,0,1,487,171.47q1,5.75,1.88,11.51c.26,1.77.47,3.56.75,5.33,0-.29-.43-3.31-.12-.93.06.44.12.89.17,1.33.13.94.25,1.88.37,2.82,3.47,27.59,5.19,55.49,3.66,83.28-.38,6.94-1,13.87-1.79,20.77-.11.92-.23,1.84-.34,2.77-.31,2.49.41-2.91.06-.43-.25,1.71-.5,3.42-.76,5.12-.54,3.4-1.14,6.78-1.81,10.16a232.09,232.09,0,0,1-11.25,39.28c-.56,1.46-1.16,2.91-1.75,4.36-.65,1.61,1.14-2.65.45-1.06-.16.36-.31.72-.46,1.08-.37.84-.74,1.67-1.12,2.51q-2.1,4.63-4.43,9.17a185.17,185.17,0,0,1-10.4,17.68q-2.92,4.41-6.11,8.63c-.25.33-.51.65-.75,1,0,.07,1.77-2.25.85-1.1-.52.65-1,1.3-1.54,1.94-1.21,1.5-2.43,3-3.68,4.45-4.65,5.44-9.59,10.62-14.75,15.56s-10.39,9.49-15.86,13.91c-.75.61-1.51,1.21-2.27,1.81-.39.31-2.62,2-.92.73s-.53.41-.93.71c-.78.59-1.55,1.17-2.33,1.74q-4.32,3.23-8.76,6.29A334.55,334.55,0,0,1,364.88,465q-5.07,2.6-10.27,4.95c-.79.36-1.59.72-2.4,1.07l-1.2.52c-1.65.74,2.48-1,.8-.33s-3.51,1.43-5.28,2.11a173.06,173.06,0,0,1-21.8,6.81q-5.85,1.4-11.8,2.38c-1.82.31-3.66.52-5.48.83,0,0,2.84-.35,1.29-.18l-1.84.23-3.22.35c-8,.81-16.05,1.18-24.09,1.27-15.92.18-31.88-.6-47.75-1.88q-11.53-.93-23-2.41l-1.35-.17c3.52.43,1.67.22.89.11l-2.7-.38c-1.94-.29-3.89-.59-5.83-.9q-5.81-.94-11.6-2.07a294.8,294.8,0,0,1-45.31-12.48c-1.8-.67-3.6-1.35-5.38-2l-2.15-.86c-.53-.22-3.36-1.4-1.23-.5s-.39-.17-.87-.38l-2.12-.94c-1.65-.74-3.28-1.49-4.91-2.27q-9.08-4.32-17.73-9.45T91.78,437.25c-.62-.46-1.24-.92-1.85-1.39-.31-.23-.61-.47-.92-.69-.12-.09,2.35,1.84,1.21.93-1.41-1.12-2.82-2.23-4.2-3.38q-3.84-3.18-7.51-6.57A168.24,168.24,0,0,1,65,412.09q-1.62-1.89-3.18-3.82c-.48-.6-1-1.21-1.43-1.8-.91-1.15,1,1.33.94,1.21-.29-.42-.62-.81-.92-1.22q-3-4-5.71-8.18A155.31,155.31,0,0,1,44.48,380q-1.12-2.38-2.17-4.8c-.16-.37-.31-.75-.48-1.12,0-.1,1.12,2.74.58,1.36-.34-.88-.71-1.75-1-2.63q-1.92-4.9-3.55-9.91a204.57,204.57,0,0,1-5.43-20.38q-1.11-5.19-2-10.42-.4-2.43-.75-4.86c-.08-.54-.18-1.08-.23-1.62,0-.14.4,3.08.2,1.55l-.36-2.85c-3.44-28.63-2.48-57.59-.48-86.29.56-7.92,1.19-15.83,2.05-23.73q.32-3,.69-6c.12-.92.27-1.85.36-2.77,0,0-.4,2.82-.18,1.27l.27-1.84q.85-6,2-12a167.21,167.21,0,0,1,7.49-28.52c.45-1.19.93-2.38,1.42-3.57.72-1.77-1.26,2.94-.89,2.1.15-.33.29-.67.43-1l.84-1.89q1.83-4,3.87-7.88a180.34,180.34,0,0,1,10.28-17.09q3.11-4.59,6.46-9c.26-.36.54-.71.8-1.06.52-.69-2.37,3-1,1.33.61-.77,1.21-1.54,1.82-2.3,1.25-1.56,2.53-3.1,3.82-4.62A231.36,231.36,0,0,1,87,100.89q5-4.74,10.35-9.18,2.74-2.29,5.56-4.52l1.32-1c1.61-1.26-3,2.25-.73.56l3-2.21a259.91,259.91,0,0,1,26.09-17q7.25-4.12,14.72-7.79,3.87-1.91,7.8-3.69l3.7-1.64c.62-.28,1.24-.54,1.87-.81.43-.19,1.65-.7-.36.14-2.22.94-.22.1.29-.11a310.68,310.68,0,0,1,35.09-12.12A354,354,0,0,1,234.77,33c3.14-.51,6.54-3.59,8.07-6.21A13.5,13.5,0,0,0,238,8.3c-3.4-1.8-6.62-2-10.4-1.36a343,343,0,0,0-79.38,22.84A270.36,270.36,0,0,0,90.73,62.73,250.47,250.47,0,0,0,48.83,102,208.92,208.92,0,0,0,23,140.14c-8.16,15.91-12.9,32.6-15.9,50.24A509.48,509.48,0,0,0,1.53,242C.55,256.71-.1,271.51,0,286.31c.22,29.74,3.33,60.2,13.33,88.37A175.74,175.74,0,0,0,62,447.56c22.11,19.68,48.09,34.07,75.88,44C169,502.76,202.11,507.86,235,510.33c33.16,2.48,67.51,3.45,100-5,30.37-7.9,58.63-23.84,84.12-41.83,25.29-17.85,48.22-38.95,65.23-65,15.75-24.1,25.85-51.88,31.19-80.09,5.46-28.86,6.7-58.34,5.14-87.63-.76-14.22-2.16-28.41-4-42.53-2.17-16.57-4.64-33.18-9.65-49.18-3.27-10.45-7.39-20.74-13.44-29.91a167.39,167.39,0,0,0-17.85-22.33C460.22,70.33,442,56.12,422.92,44A297.55,297.55,0,0,0,352.33,11C326.47,3,298.88-1.24,271.77.32a221.45,221.45,0,0,0-22.09,2.49C242.29,4,235,5.74,227.6,6.94c-3.14.51-6.54,3.58-8.07,6.21a13.74,13.74,0,0,0-1.36,10.4C220.62,31.12,227.28,34.2,234.77,33Z"/><path class="cls-1" d="M419.05,384.31q-28-28.14-55.83-56.42-26.57-27-53-54.07-25.89-26.55-51.65-53.21-26.13-27-52.15-54.15Q179.16,138,152,109.54l-6.9-7.23a13.52,13.52,0,0,0-19.1,0,13.59,13.59,0,0,0-4,9.55,14.31,14.31,0,0,0,4,9.54q27.4,28.71,54.87,57.36,26.2,27.32,52.5,54.56,25.76,26.67,51.62,53.23,26.22,26.93,52.58,53.72,27.63,28.1,55.39,56l7,7.09a13.94,13.94,0,0,0,9.55,4,13.73,13.73,0,0,0,9.55-4,13.58,13.58,0,0,0,3.95-9.54,14.09,14.09,0,0,0-3.95-9.55Z"/></g></g></svg>