<svg xmlns="http://www.w3.org/2000/svg" viewBox="0 0 265.21 281.97"><defs><style>.cls-1{fill:#d3c485;}.cls-2{fill:#1c0900;}</style></defs><g id="Layer_2" data-name="Layer 2"><g id="Doctor"><circle class="cls-1" cx="128.77" cy="162.97" r="118.5"/><path d="M128.77,45A118,118,0,1,1,45.33,79.53,117.22,117.22,0,0,1,128.77,45m0-1a119,119,0,1,0,119,119,119,119,0,0,0-119-119Z"/><path class="cls-2" d="M81.74,22.5c-4.76.51-9.49-.82-14.21-1.6s-9.9-.94-13.94,1.62-6.06,8.69-2.91,12.29c-5.78.72-11.74,1.49-16.79,4.4s-9,8.55-8.1,14.31c.43,2.79,1.83,6-.07,8.15-1.54,1.71-4.26,1.39-6.46,2.08-9,2.8-5.22,19.16-13.71,23.16-1.75.82-4,1.07-5,2.71C-.22,90.84,0,92.41.2,93.83l6.48,40.66c9.25-5.48,17.39-12.62,26-19.08A215.34,215.34,0,0,1,186.27,74.23c2.83.35,5.88.85,7.87,2.9,1.52,1.58,2.15,3.79,2.78,5.89,9,29.83,30.56,54,51.48,77.07,10.33-22,19.36-45.93,16.15-70-2.6-19.5-13.34-37.49-28.18-50.4s-33.55-21-52.88-24.61c-7.75-1.46-16.9-1.81-22.26,4L155.16,0c-5.85,7.88-15.14,16.72-24,12.44-2.74-1.32-4.86-3.79-7.73-4.79-6.2-2.14-12.13,3.22-17.79,6.53C98,18.69,88.81,19.65,79.94,20.52Z"/><circle cx="91.27" cy="166.47" r="14.5"/><circle cx="167.27" cy="167.47" r="14.5"/><path d="M94,225.36c21.37,10.89,47.2,12.12,69.67,3.85a83.23,83.23,0,0,0,18-9.18c1.59-1.07.09-3.67-1.52-2.59-19.16,13-43.68,17.2-66.18,12a80.18,80.18,0,0,1-18.43-6.68c-1.71-.87-3.23,1.72-1.51,2.59Z"/></g></g></svg>