<svg xmlns="http://www.w3.org/2000/svg" viewBox="0 0 290.61 258.62"><defs><style>.cls-1{fill:#895e25;}.cls-2{fill:#915c00;}.cls-3{fill:#ff967a;}</style></defs><g id="Layer_2" data-name="Layer 2"><g id="Friend_Amy" data-name="Friend Amy"><circle class="cls-1" cx="142.36" cy="138.97" r="118.5"/><path d="M142.36,21A118,118,0,0,1,225.8,222.41,118,118,0,0,1,58.92,55.53,117.26,117.26,0,0,1,142.36,21m0-1a119,119,0,1,0,119,119,119,119,0,0,0-119-119Z"/><path class="cls-2" d="M118.63,11.5a59.45,59.45,0,0,0-54.9,5.13C52.14,24.3,43.15,39.85,50.15,51.85a41.14,41.14,0,0,0-31.89,13c-4.49,4.87-7,14-1.12,17.1.32-1.66-1.84-2.91-3.46-2.43s-2.69,2-3.61,3.41c-4.08,6.28-7.76,13-9,20.41s.42,15.57,5.75,20.83c-3,4.18-4.25,23.22-5,28.29s11.6,78.37,16,81c6.26,3.74,23.78,27.81,30,24C55.17,253,41,138.3,45.59,131.06c3.78-6,5.18-13.08,8-19.54,3.63-8.28,9.55-15.34,15.86-21.81,17-17.37,37.9-31.58,61.57-37s50.19-1.08,68.66,14.67c18.16,15.48,26.48,39.45,31.9,62.69,3.07,13.18,8.93,93.85,21.27,99.39,14,6.29,45,15,34.68-84.44-.49-4.79,3.15-9.32,2.21-14s-4.49-9.14-9.24-10a62.6,62.6,0,0,0-7.81-55.47c-1.48-2.1-3.15-4.28-3.34-6.84s1.26-5.16,2.25-7.66a23.22,23.22,0,0,0-7.37-26.24,23.22,23.22,0,0,0-27.26,0C237.09,12.91,225.61,3.2,213.75,2s-23.47,4.26-33,11.39a9.67,9.67,0,0,1-3.73,2c-4.79,1-7.41-5.13-10.5-8.92a14.79,14.79,0,0,0-19.24-2.68c-1.95,1.35-4.24,3.3-6.35,2.23-1.68-.86-2-3.17-3.44-4.42C134.85-.68,130.74,2,129,4.94s-3.17,6.78-6.47,7.9l-6.14-4.56Z"/><path d="M118.83,10.78A60.25,60.25,0,0,0,77.9,9.1C65.6,13,54,20.9,48.92,33.17c-2.54,6.2-2.79,13.13.59,19.06l.64-1.13a42.07,42.07,0,0,0-24,6.32C20,61.2,13.93,66.76,13,74.26c-.4,3.35.65,6.65,3.72,8.35A.76.76,0,0,0,17.89,82C18.2,78.77,14.11,78,12,79.54a14.68,14.68,0,0,0-3.43,4.31c-1.23,2-2.41,3.93-3.48,6-3.8,7.26-6.23,15.43-4.59,23.64a21.92,21.92,0,0,0,5.81,11.24l-.12-.91c-1.61,2.35-2.06,5.62-2.55,8.35C3,136.08,2.49,140.06,2.05,144s-1.17,7.75-.81,11.65c1,11.12,3.07,22.2,5,33.18C8.46,201.27,10.68,213.79,14,226a54.66,54.66,0,0,0,1.68,5.27,7,7,0,0,0,1.51,2.71c.63.56,1.41,1,2.06,1.55,1.1,1,2.14,2,3.16,3,2.5,2.54,4.91,5.17,7.37,7.74s5.15,5.33,8,7.73c2,1.73,4.28,3.6,6.87,4.39,1.35.41,3.1.46,4.11-.68a6.08,6.08,0,0,0,1.09-2.62,49.52,49.52,0,0,0,.87-10.25c.1-5.26-.06-10.54-.26-15.8-.53-13.4-1.48-26.78-2.41-40.16-.88-12.73-1.83-25.46-2.38-38.2-.19-4.38-.35-8.78-.23-13.16a39.18,39.18,0,0,1,.28-4.09,7.37,7.37,0,0,1,1.3-3.24c2.85-5.05,4.28-10.72,6.35-16.1a58.61,58.61,0,0,1,9.05-15.34A142.26,142.26,0,0,1,86.94,75.12c17.41-13.37,38.3-23,60.49-23.8,21.42-.8,43.06,6.41,57.75,22.41,14.22,15.48,21.37,36.7,25.76,56.89.84,3.86,1.27,7.82,1.78,11.73.8,6.27,1.55,12.55,2.35,18.82,1.82,14.42,3.72,28.88,6.73,43.11a112.26,112.26,0,0,0,4.61,16.8c1.16,3,2.67,7,5.64,8.81a28.51,28.51,0,0,0,6.19,2.45,27.93,27.93,0,0,0,7.14,1.31,17.83,17.83,0,0,0,14.38-6.12c6.25-7.11,8.27-17.38,9.44-26.47a171.65,171.65,0,0,0,1.13-24.52c-.09-5.25-.33-10.49-.68-15.73-.19-2.94-.42-5.87-.68-8.81s-1-6.15-.64-9.1c.3-2.52,1.39-4.86,1.95-7.33a11.67,11.67,0,0,0-.36-6.77c-1.49-4.12-4.81-7.63-9.21-8.48l.53.92a63.6,63.6,0,0,0-5.85-52.94c-1.24-2-2.74-3.89-3.95-5.94a8.24,8.24,0,0,1-.5-7.8,45.5,45.5,0,0,0,2.29-6.19,23.16,23.16,0,0,0,.58-5.81c-.21-7.86-4.29-15.62-11.12-19.68a24.11,24.11,0,0,0-26.09,1.3l1.13.65c0-9.69-7.13-17.72-15.71-21.41C211.66-1,200,1.49,190.3,6.47a69,69,0,0,0-7.73,4.67c-2.12,1.47-4.66,4.21-7.5,3.52-2.17-.54-3.7-2.67-4.93-4.38a39.39,39.39,0,0,0-4-5.31A15.66,15.66,0,0,0,153.72.74a14.59,14.59,0,0,0-6.19,2c-2.25,1.37-5.38,4.64-7.5,1.35C138.78,2.18,137.84,0,135.2,0c-2.41,0-4.66,1.63-6.11,3.43-1.65,2.06-2.45,4.68-4.15,6.71a7,7,0,0,1-1.49,1.39c-1,.63-1.27.15-2.13-.48l-4.6-3.42c-.59-.44-1.45.44-1,1L118,11.88c.56.78,1.86,0,1.3-.76L117,7.9l-1,1,3.73,2.77c.92.68,2.13,2.17,3.35,1.73a9.07,9.07,0,0,0,4.21-4c1.3-2.08,2.17-4.49,4-6.18,2.07-1.87,4.92-2.66,6.6.06,1,1.7,1.94,3.7,4.24,3.76,2.48,0,4.36-2,6.34-3.17a14.19,14.19,0,0,1,13.67-.06c4.17,2.25,5.79,6.65,8.95,9.92a7.26,7.26,0,0,0,4.58,2.46c2.64.18,4.66-1.67,6.66-3.11C191.64,6.46,203.4,1,215.16,2.94c10.64,1.74,21.05,10.5,21.07,21.89a.76.76,0,0,0,1.13.65,22.61,22.61,0,0,1,23.46-1.91c7.2,3.7,11.5,11.59,11.5,19.59a21.34,21.34,0,0,1-.79,5.79c-.6,2.13-1.7,4.06-2.38,6.16a8.77,8.77,0,0,0,.05,6.12,29.58,29.58,0,0,0,3.38,5.49,61.87,61.87,0,0,1,7.21,54.12.76.76,0,0,0,.52.93,11.5,11.5,0,0,1,8.83,11.42c-.16,2.64-1.33,5.11-1.95,7.65-.65,2.7-.28,5.26,0,8,1,10.62,1.71,21.29,1.69,32a150.17,150.17,0,0,1-1.56,23,62.88,62.88,0,0,1-4.06,15.2c-2.44,5.63-6.42,11-12.62,12.63-4.58,1.2-9.39.24-13.75-1.34-2.07-.74-4.24-1.41-5.67-3.19-2.64-3.26-3.93-7.73-5.1-11.68-3.85-13-5.78-26.71-7.67-40.15-1.76-12.58-3.12-25.21-4.86-37.79a126.77,126.77,0,0,0-3.13-15.17,153.89,153.89,0,0,0-10.66-29.54,81.94,81.94,0,0,0-18.19-24.72,70,70,0,0,0-26.43-14.73c-20.26-6.19-42.1-3.94-61.44,4.24A126.67,126.67,0,0,0,85.8,74.12,145,145,0,0,0,62,96.89a62,62,0,0,0-9,14.25c-2.3,5.24-3.63,10.86-6.09,16-.83,1.75-2.12,3.3-2.49,5.23a25.64,25.64,0,0,0-.38,3.7c-.48,9.66.36,19.44,1,29.06.84,13.5,1.86,27,2.73,40.48.77,12,1.56,24.05,1.56,36.09a77.07,77.07,0,0,1-.56,11.37,12,12,0,0,1-.76,3.08c-.19.38-.21.48-.46.67.15-.12-.42.19-.58.23a3.1,3.1,0,0,1-1.25,0c-2.6-.48-5-2.6-6.91-4.25-2.73-2.35-5.25-4.92-7.73-7.52s-4.95-5.28-7.49-7.86a61.2,61.2,0,0,0-5.3-4.63c.21.18-.21-.26-.11-.12a3.44,3.44,0,0,1-.35-.58,12.42,12.42,0,0,1-.72-1.63c-.65-1.73-1.16-3.52-1.64-5.3-1.49-5.43-2.68-10.95-3.82-16.47q-4.07-19.65-7-39.51c-.68-4.49-1.36-9-1.78-13.51-.36-3.84.34-7.29.78-11.32s.87-7.79,1.56-11.65c.47-2.64.87-5.88,2.43-8.15a.77.77,0,0,0-.12-.91c-6-6.1-7-15.35-4.87-23.33A50.81,50.81,0,0,1,8,87.67a57.45,57.45,0,0,1,3.42-5.42c.68-.9,1.69-2,2.91-2.07a1.79,1.79,0,0,1,2,1.78l1.13-.64c-3.55-2-3.49-6.22-2.37-9.65,1.37-4.22,4.4-7.43,7.8-10.17a40.62,40.62,0,0,1,27.2-8.9.76.76,0,0,0,.65-1.13c-6.23-10.95,1-23.88,9.46-31.26,9.82-8.55,23.68-12.53,36.53-12.4a57.82,57.82,0,0,1,21.64,4.41C119.32,12.59,119.71,11.14,118.83,10.78Z"/><circle cx="104.86" cy="143.47" r="14.5"/><circle cx="180.86" cy="144.47" r="14.5"/><path class="cls-3" d="M131.92,193A24.94,24.94,0,0,0,150,196.5a38.5,38.5,0,0,0,16.94-7.84c-.48,5-1,10.09-2.47,14.9S160.33,213,156.31,216s-9.58,4.31-14.26,2.42c-5-2-8.16-7.16-9.75-12.34A36.06,36.06,0,0,1,130.9,192l2.56,1.74"/></g></g></svg>