<svg xmlns="http://www.w3.org/2000/svg" viewBox="0 0 332.59 358.56"><defs><style>.cls-1{fill:#d6a894;}</style></defs><g id="Layer_2" data-name="Layer 2"><g id="Layer_1-2" data-name="Layer 1"><path class="cls-1" d="M52.27,216.2A425,425,0,0,1,66.62,17.36c1.77-5.51,4-11.46,9.09-14.27,4-2.2,8.85-1.95,13.2-.69,20.38,5.9,29.24,29.46,33.75,50.19a469,469,0,0,1,10.73,95.58c9.63-8.14,20.87-16.7,33.39-15.23,9.07,1.06,16.83,7.45,21.77,15.13s7.51,16.61,10,25.39c.41-13.38,4-28.8,16.05-34.55,9.37-4.47,21-1.17,29,5.46s13.11,16,17.87,25.22c-4.08-16.31,12.16-34.1,28.78-31.51,16.15,2.51,25.84,19.19,31.08,34.67A186.71,186.71,0,0,1,327,271.1c-2.95,13.81-7.59,27.49-15.85,38.95C304.25,319.66,295,327.4,285,333.82a145.83,145.83,0,0,1-63.42,22.37c-15.61,1.65-31.39.76-47-.92-31.14-3.35-62.26-10-90.48-23.54s-53.5-34.55-68.57-62-19-61.67-6.9-90.55c6.94-16.55,20.1-32.06,38-30.73"/><path d="M53.72,215.8A423.56,423.56,0,0,1,57.8,56c2.83-13,6.26-25.82,10.35-38.46C69.72,12.65,71.71,7,76.46,4.39,81.53,1.59,88,3.2,93,5.51c18.22,8.54,24.74,31.1,28.6,49.16a467.4,467.4,0,0,1,10.1,83.18q.16,5.16.21,10.32a1.52,1.52,0,0,0,2.56,1.06C143,142,153.2,133.75,165.06,134.3c11.57.53,20.26,9.9,25.09,19.66,3.12,6.32,5,13.15,7,19.9a1.51,1.51,0,0,0,2.95-.4c.36-10.93,2.53-24.5,12.08-31.36,11.65-8.36,26.7-1.51,35.2,8,5.35,6,9.15,13.16,12.82,20.25.8,1.55,3.12.45,2.74-1.16-2.26-9.47,2.59-19.36,10.21-25a23.1,23.1,0,0,1,26.6-1c8.32,5.18,13.72,14.18,17.51,23,4.78,11.08,7.72,23.16,9.74,35A182.82,182.82,0,0,1,324,277.29c-3,11.73-7.57,23.21-14.86,33-7.15,9.56-16.67,17.16-26.74,23.43a145.38,145.38,0,0,1-70.49,21.71c-13.55.59-27.11-.44-40.56-2a343.77,343.77,0,0,1-38-6.39c-23.73-5.45-46.89-14-67.47-27.14C47.31,308,30.84,292.34,19.37,273.35c-12-19.86-18-43.41-16-66.6A87.6,87.6,0,0,1,12.72,174c4.54-8.68,11-17,20-21.41A27.39,27.39,0,0,1,46.64,150c1.93.13,1.92-2.87,0-3C24.09,145.47,10,168.25,4.2,187.08c-7.1,23.17-4.86,48.71,4.19,71,8.77,21.6,24,40.11,42.15,54.49,19.45,15.36,42.08,26,65.77,33.05a297.18,297.18,0,0,0,38.91,8.6,350.62,350.62,0,0,0,41.15,4.18,165.27,165.27,0,0,0,40.38-3.13,147.5,147.5,0,0,0,36.07-12.74c11.14-5.65,21.85-12.66,30.78-21.44a83.61,83.61,0,0,0,19.69-31.27,158.57,158.57,0,0,0,8.26-37.71,188.63,188.63,0,0,0-8.67-79.47c-3.25-9.64-7.81-19.34-15-26.67-6.87-7-16.66-11.34-26.5-9-9.49,2.27-17.42,10-20.6,19.11A24.64,24.64,0,0,0,260,170l2.74-1.16c-6.85-13.24-15.15-27.56-30.35-32.18-6.54-2-13.77-1.77-19.81,1.61-5.4,3-9.12,8.15-11.47,13.78-2.81,6.75-3.82,14.15-4.06,21.42l2.94-.4c-3.49-12.25-7.36-25.31-17.22-34.07a29.47,29.47,0,0,0-15.08-7.43c-6.1-.9-12.14.55-17.65,3.18-6.53,3.11-12.24,7.73-17.73,12.37l2.56,1.06A473.47,473.47,0,0,0,126.13,62C124,50.83,121.52,39.71,117,29.25c-3.85-9-9.32-17.63-17.42-23.34C91.29,0,77.89-3.63,70.54,5.62,67,10.12,65.45,16,63.79,21.37q-3.06,9.93-5.62,20a426.73,426.73,0,0,0-8.91,165.12c.48,3.38,1,6.75,1.57,10.11.31,1.9,3.2,1.1,2.89-.8Z"/><path d="M75,44.93A36.72,36.72,0,0,1,77.61,26c1.09-2.53,2.49-5.42,4.88-7,2.69-1.76,5.76-.73,8.22.92,4.8,3.22,8.36,8.72,10.26,14.09a29.29,29.29,0,0,1,1.73,8.53c0,.68.14,1.13-.51,1.39a14,14,0,0,1-2.4.49c-1.75.35-3.51.69-5.27,1a70.64,70.64,0,0,1-12.14,1.19c-1.49,0-3.21.16-4.6-.45a20.33,20.33,0,0,1-3.38-2l.69.89-.18-.51c-.62-1.82-3.52-1-2.89.79.42,1.24,1.27,1.73,2.35,2.4A11.27,11.27,0,0,0,78,49.41a29.56,29.56,0,0,0,6.31.2c2.09-.08,4.19-.28,6.27-.55s4.28-.62,6.41-1a51.48,51.48,0,0,0,6.15-1.23c3.68-1.15,2.54-5.92,2-8.77a34.21,34.21,0,0,0-9.88-18.21c-2.61-2.48-6-4.77-9.72-4.75-3.56,0-6.33,2.3-8.25,5.12C72.55,27.2,71,36.66,72,44.93,72.19,46.83,75.19,46.85,75,44.93Z"/></g></g></svg>