<svg xmlns="http://www.w3.org/2000/svg" viewBox="0 0 607.99 344.02"><defs><style>.cls-1{fill:#9ae5c1;}</style></defs><g id="Layer_2" data-name="Layer 2"><g id="Layer_1-2" data-name="Layer 1"><path class="cls-1" d="M12.06,48.56c85.21,102.63,174,194.74,272.49,284.71,4.55,4.17,9.54,8.52,15.66,9.29,5.6.7,11.08-1.73,16.08-4.35,22.86-12,42.66-29,61.9-46.24a1982.89,1982.89,0,0,0,168-169.74C565.8,99.85,585,76.85,599.7,50.94c4.95-8.75,9.42-19.35,5.29-28.51-5-11.1-19.4-13.59-31.55-14.49C388.14-5.73,202,5,16.49,15.75c-3.07.17-6.25.38-8.95,1.87C2.22,20.54.5,27.71,2,33.6s6.19,10.28,10.05,15Z"/><path d="M11,49.62q47.8,57.55,98.64,112.48,50.05,54,102.91,105.39,26.85,26.11,54.34,51.57,7,6.51,14.09,13c3.91,3.57,7.8,7.47,12.56,9.9,10.5,5.36,20.94-.78,30.09-6.09,20.48-11.87,38.48-27.47,56.05-43.21q28.17-25.25,55.37-51.56,54.79-53,105.41-110.12c16.11-18.18,32.14-36.57,46.09-56.5,6.83-9.76,14-20,18.55-31.06,3.69-8.84,4.71-19.23-2.21-26.81-5.76-6.31-14.83-8.44-23-9.51-12-1.57-24.28-1.92-36.37-2.64Q503.49,2,463.37,1C410.07-.43,356.73-.24,303.43,1s-106.69,3.48-160,6.2q-40.12,2-80.25,4.37L23.67,13.83c-5.4.31-12-.22-16.89,2.49a13.67,13.67,0,0,0-6.4,9.32c-2.07,10,4.75,17,10.62,24,1.24,1.49,3.35-.65,2.12-2.12-3.45-4.13-7.73-8.13-9.41-13.39-1.45-4.55-.87-10.36,2.72-13.82,4.25-4.1,12.38-3.18,17.84-3.5l19.15-1.1Q82,13.47,120.67,11.38c51.51-2.75,103-5.13,154.59-6.65,51.31-1.52,102.65-2.16,154-1.43q38.63.56,77.22,2.22,19.16.84,38.28,2c12,.72,24.16,1,36,2.69,8.49,1.25,18.44,4,22.6,12.27,5.42,10.8-2.27,23.32-7.71,32.47-12.26,20.6-27.31,39.35-42.93,57.48-31.73,36.82-65,72.33-99.48,106.62q-26,25.89-53,50.8c-17.55,16.22-35.12,32.71-54.14,47.21a220.39,220.39,0,0,1-28.71,18.84c-5.5,3-11.78,6.34-18.25,5-5.55-1.19-9.93-5.32-14-9q-26.73-24.4-52.88-49.45Q180.64,232.93,131.42,181T36,74.65Q24.46,61.15,13.12,47.5C11.89,46,9.77,48.15,11,49.62Z"/></g></g></svg>