<svg xmlns="http://www.w3.org/2000/svg" xmlns:xlink="http://www.w3.org/1999/xlink" viewBox="0 0 294 406"><defs><style>.cls-1{fill:#ffe27c;}.power{fill:#fff;}.cls-3{fill:url(#linear-gradient);}.cls-4{fill:url(#linear-gradient-2);}</style><linearGradient id="linear-gradient" x1="139.35" y1="30.5" x2="153.65" y2="30.5" gradientUnits="userSpaceOnUse"><stop offset="0" stop-color="#fff"/><stop offset="1"/></linearGradient><linearGradient id="linear-gradient-2" x1="174.85" y1="35.5" x2="182.15" y2="35.5" xlink:href="#linear-gradient"/></defs><g id="Layer_2" data-name="Layer 2"><g id="Layer_1-2" data-name="Layer 1"><rect class="cls-1" x="0.33" y="0.33" width="293.35" height="405.35" rx="14.35"/><path d="M279.33.65a14,14,0,0,1,14,14V391.33a14,14,0,0,1-14,14H14.67a14,14,0,0,1-14-14V14.67a14,14,0,0,1,14-14H279.33m0-.65H14.67A14.67,14.67,0,0,0,0,14.67V391.33A14.67,14.67,0,0,0,14.67,406H279.33A14.67,14.67,0,0,0,294,391.33V14.67A14.67,14.67,0,0,0,279.33,0Z"/><rect x="18.46" y="54.39" width="255.07" height="175.54" rx="19.3"/><path d="M254.23,54.74a19,19,0,0,1,19,18.95V210.63a19,19,0,0,1-19,19H37.77a19,19,0,0,1-19-19V73.69a19,19,0,0,1,19-18.95H254.23m0-.7H37.77A19.65,19.65,0,0,0,18.12,73.69V210.63a19.64,19.64,0,0,0,19.65,19.64H254.23a19.64,19.64,0,0,0,19.65-19.64V73.69A19.65,19.65,0,0,0,254.23,54Z"/><path class="power" d="M41,285.38c-15.26,0-27.68-11-27.68-24.44S25.74,236.49,41,236.49s27.68,11,27.68,24.45S56.26,285.38,41,285.38Z"/><path d="M41,236.81c15.09,0,27.36,10.82,27.36,24.13S56.09,285.06,41,285.06s-27.36-10.82-27.36-24.12S25.91,236.81,41,236.81m0-.64c-15.46,0-28,11.09-28,24.77S25.54,285.7,41,285.7s28-11.08,28-24.76-12.54-24.77-28-24.77Z"/><circle cx="146" cy="31" r="16.65"/><path d="M146,14.7A16.3,16.3,0,1,1,129.7,31,16.32,16.32,0,0,1,146,14.7m0-.7a17,17,0,1,0,17,17,17,17,0,0,0-17-17Z"/><circle class="cls-3" cx="146.5" cy="30.5" r="7.15"/><path d="M146.5,23.7a6.8,6.8,0,1,1-6.8,6.8,6.81,6.81,0,0,1,6.8-6.8m0-.7a7.5,7.5,0,1,0,7.5,7.5,7.5,7.5,0,0,0-7.5-7.5Z"/><circle class="cls-4" cx="178.5" cy="35.5" r="3.65"/><path d="M178.5,32.2a3.3,3.3,0,1,1-3.3,3.3,3.3,3.3,0,0,1,3.3-3.3m0-.7a4,4,0,1,0,4,4,4,4,0,0,0-4-4Z"/></g></g></svg>