<svg xmlns="http://www.w3.org/2000/svg" viewBox="0 0 282.46 283.04"><g id="Layer_2" data-name="Layer 2"><g id="order"><path d="M53.52,103.67a118.41,118.41,0,0,1,14-54.62C76.12,33,88.62,17.74,105.05,9.29c15.64-8,33.78-7.87,50.12-2,17,6.05,31.13,17.71,41.77,32.09,11.1,15,18.56,32.33,24.3,50,.7,2.18,1.39,4.37,2,6.56.55,1.85,3.45,1.06,2.89-.79-5.54-18.36-12.6-36.55-23.32-52.55-10.31-15.39-24-28.39-41.11-35.89C145.62-.42,126.93-2.58,110.2,3.75,92.36,10.48,78.49,25.17,68.64,41.1A121.74,121.74,0,0,0,50.8,96.46c-.17,2.4-.26,4.81-.28,7.21a1.5,1.5,0,0,0,3,0Z"/><path d="M6,115.39q53.61-5.65,107.38-9.8,53.49-4.12,107.07-6.72,30.26-1.47,60.53-2.46l-1.44-1.9Q261.85,143.85,241.08,192q-10.35,24-21.47,47.64c-3.33,7.08-6.88,14.12-12.81,19.42-5.34,4.77-11.94,7.95-18.67,10.27a157.94,157.94,0,0,1-23,5.73c-8.65,1.59-17.38,2.66-26.14,3.39-17.34,1.44-34.74,1.56-52.13,1.6-4,0-8.17.23-12.15-.52A18.89,18.89,0,0,1,65,274.46,54.56,54.56,0,0,1,58.14,266q-3.48-5-6.75-10.07A312.63,312.63,0,0,1,4.16,124.53C3.7,120.68,3.32,116.81,3,113,2.85,111-.15,111,0,113A316.13,316.13,0,0,0,43.69,249.21C47.74,256,52,262.62,56.62,269c4.39,6.16,9.51,11.9,17.28,13.37a64.66,64.66,0,0,0,11.88.62c4.48,0,9,0,13.44-.06,9-.07,17.94-.25,26.9-.69,17.6-.88,35.24-2.81,52.38-7,14.37-3.56,28.78-9.29,37.28-22.1,4.57-6.89,7.73-14.75,11.18-22.23q5.65-12.24,11.1-24.57,21.56-48.76,39.92-98.86c1.49-4,2.95-8.11,4.41-12.17a1.52,1.52,0,0,0-1.45-1.9q-53.88,1.77-107.71,5-53.53,3.26-107,8.05-30.18,2.7-60.3,5.88c-1.9.2-1.92,3.2,0,3Z"/><path d="M12.42,170.89q48.42-4,96.8-8.56t96.7-9.69q27.26-2.88,54.49-5.95c1.9-.21,1.92-3.22,0-3q-48.29,5.43-96.63,10.31T67,163.2q-27.3,2.43-54.62,4.69c-1.91.16-1.93,3.16,0,3Z"/><path d="M40.3,233.59q38.57-4,77.06-8.56,38.33-4.59,76.57-9.81,21.54-2.94,43.06-6.08c1.9-.28,1.09-3.17-.8-2.89q-38.16,5.56-76.41,10.51T83.29,226q-21.48,2.4-43,4.61c-1.91.2-1.93,3.2,0,3Z"/><path d="M72.09,107.62l1.77,66.63,1.77,66.63,1,37.43c0,1.93,3,1.93,3,0l-1.77-66.63-1.76-66.63-1-37.43c0-1.93-3-1.93-3,0Z"/><path d="M138.25,103.62q.12,33.66-.3,67.32-.42,33.42-1.38,66.81-.54,18.94-1.26,37.88c-.07,1.94,2.93,1.93,3,0q1.27-33.63,2-67.29.74-33.4.91-66.82.1-18.95,0-37.9a1.5,1.5,0,0,0-3,0Z"/><path d="M206.15,103.56l-5,64.13-5,63.87-2.81,36c-.15,1.93,2.85,1.92,3,0l5-64.12,5-63.88,2.81-36c.15-1.92-2.85-1.91-3,0Z"/></g></g></svg>