<svg xmlns="http://www.w3.org/2000/svg" viewBox="0 0 238 260.24"><defs><style>.cls-1{fill:#e2c688;}.cls-2{fill:#ffc426;}</style></defs><g id="Layer_2" data-name="Layer 2"><g id="son"><circle class="cls-1" cx="119" cy="141.24" r="118.5"/><path d="M119,23.24a118,118,0,0,1,83.44,201.44A118,118,0,0,1,35.56,57.8,117.22,117.22,0,0,1,119,23.24m0-1a119,119,0,1,0,119,119,119,119,0,0,0-119-119Z"/><path class="cls-2" d="M85.5,1.74C63.43,6.1,47.42,8.4,33.15,25.79S12.86,66.2,12.41,88.7q35-24.72,72.2-45.92a6.18,6.18,0,0,1,3.79-1.15c1.46.21,2.55,1.41,3.53,2.52,16.37,18.24,41.13,27.21,65.56,29.22s48.9-2.25,73-6.71C211.07,34.93,172.9,21,137.49,9.59,120.66,4.18,102.84-1.69,85.5,1.74Z"/><path d="M85.3,1C70.64,3.91,55.13,6.23,42.84,15.4,29,25.71,20.38,42.17,15.88,58.51A124.14,124.14,0,0,0,11.66,88.7a.75.75,0,0,0,1.13.64Q33.1,75,54.19,61.8q10.65-6.66,21.48-13,2.68-1.58,5.38-3.12a40.71,40.71,0,0,1,5.48-3c2.25-.87,3.61.62,5,2.16q1.72,1.92,3.58,3.7c9.81,9.46,22,16.07,35,20.24,14.2,4.58,29.15,6.15,44,5.83,16.93-.36,33.69-3,50.32-6l6.27-1.16a.75.75,0,0,0,.45-1.1c-10.55-17.14-26.89-29.42-44.61-38.44a250.41,250.41,0,0,0-28.19-12C148,12.09,137.42,8.63,126.84,5.45,113.43,1.42,99.29-1.68,85.3,1c-1,.19-.55,1.63.4,1.45C98.21.05,110.94,2.46,123,5.89c10.54,3,21,6.49,31.32,10.13,18.8,6.63,37.64,14.56,53.49,26.87a91.64,91.64,0,0,1,22,24.15l.45-1.1c-16.89,3.12-33.87,6.14-51.06,7-15.3.74-30.73-.34-45.5-4.6C120.31,64.43,107.47,58,97.18,48.41c-1.25-1.16-2.47-2.37-3.64-3.62a17.29,17.29,0,0,0-3.42-3.31c-3.2-1.91-6.93,1.24-9.62,2.79Q69.61,50.52,58.92,57.1,37.63,70.18,17.12,84.48,14.57,86.25,12,88.05l1.12.65C13.54,71,17.25,53.06,26,37.55A68.64,68.64,0,0,1,41.87,18.06,56.22,56.22,0,0,1,60.46,8.24C68.68,5.58,77.24,4.13,85.7,2.46,86.65,2.27,86.25.83,85.3,1Z"/><circle cx="77.5" cy="137.74" r="14.5"/><circle cx="153.5" cy="138.74" r="14.5"/><path d="M105.18,204.83a53.23,53.23,0,0,0,5.73,12.48c1.09,1.74,2.28,3.87,4.13,4.91a5.82,5.82,0,0,0,5.76-.4c3.46-2,6.29-5.61,8.34-8.95a32.33,32.33,0,0,0,4.31-11.63c.31-1.89-2.58-2.7-2.89-.8a29.39,29.39,0,0,1-9.91,17.83c-1.21,1-3.08,2.25-4.55,1s-2.3-3-3.19-4.46A50.47,50.47,0,0,1,108.07,204c-.58-1.83-3.48-1.05-2.89.8Z"/></g></g></svg>